<svg width="45" height="45" viewBox="0 0 45 45" fill="none" xmlns="http://www.w3.org/2000/svg">
<path d="M16.3597 40.1113H14.8262V41.6448H16.3597V40.1113Z" fill="#687796"/>
<path d="M8.38511 12.5183L5.94993 15.0432C5.84557 15.1515 5.77534 15.2881 5.748 15.4359C5.72066 15.5838 5.73742 15.7365 5.79617 15.8749C5.85493 16.0133 5.95309 16.1314 6.07845 16.2145C6.20382 16.2976 6.35084 16.3419 6.50122 16.3421H10.992C11.1625 16.3422 11.3281 16.2856 11.4628 16.1811L15.1984 13.2751H16.3983C16.5673 15.7868 17.5547 18.1738 19.2093 20.071C20.864 21.9681 23.0947 23.2707 25.5601 23.7795V28.2427L22.224 30.9102H19.4262V30.1434C19.4262 29.9401 19.3454 29.745 19.2016 29.6012C19.0578 29.4575 18.8628 29.3767 18.6594 29.3767H12.5255C12.3222 29.3767 12.1271 29.4575 11.9833 29.6012C11.8395 29.745 11.7588 29.9401 11.7588 30.1434V43.9448C11.7588 44.1481 11.8395 44.3431 11.9833 44.4869C12.1271 44.6307 12.3222 44.7115 12.5255 44.7115H18.6594C18.8628 44.7115 19.0578 44.6307 19.2016 44.4869C19.3454 44.3431 19.4262 44.1481 19.4262 43.9448V43.428L23.8165 44.6816C23.8848 44.7016 23.9555 44.7116 24.0266 44.7115H33.2275C33.6291 44.7114 34.0237 44.6061 34.372 44.4061C34.7203 44.2062 35.0102 43.9185 35.2128 43.5717C35.4154 43.225 35.5237 42.8312 35.5269 42.4296C35.5301 42.028 35.4281 41.6326 35.231 41.2826C35.5119 41.1032 35.7504 40.8649 35.9301 40.5841C36.1097 40.3034 36.2262 39.987 36.2715 39.6568C36.3168 39.3266 36.2898 38.9905 36.1923 38.6717C36.0949 38.353 35.9294 38.0593 35.7072 37.8108C36.0281 37.4533 36.2287 37.0041 36.2809 36.5265C36.333 36.049 36.234 35.567 35.9978 35.1487C36.4169 34.8809 36.7379 34.4845 36.9127 34.0189C37.0875 33.5533 37.1067 33.0435 36.9674 32.5661C36.8281 32.0886 36.5378 31.6692 36.14 31.3707C35.7422 31.0721 35.2584 30.9105 34.761 30.9102H33.0964C33.2191 30.5632 33.2567 30.1918 33.2061 29.8273C33.1556 29.4628 33.0182 29.1157 32.8057 28.8152C32.5932 28.5147 32.3117 28.2696 31.9849 28.1005C31.658 27.9314 31.2953 27.8431 30.9273 27.8432H30.1606V23.7795C32.2619 23.3532 34.2023 22.3479 35.7626 20.8772C37.3229 19.4065 38.441 17.5289 38.9907 15.4564C39.5403 13.3838 39.4997 11.1989 38.8733 9.14826C38.247 7.09761 37.0599 5.26288 35.446 3.8512C33.8321 2.43952 31.8557 1.50711 29.7399 1.15923C27.6241 0.811342 25.4532 1.06184 23.4723 1.88244C21.4913 2.70304 19.7792 4.06106 18.5293 5.8032C17.2793 7.54534 16.5412 9.60221 16.3983 11.7416H15.2482L12.2947 8.89012C12.151 8.75118 11.9587 8.67387 11.7588 8.67466H6.39158C6.23995 8.6747 6.09175 8.71968 5.96569 8.80393C5.83963 8.88819 5.74137 9.00792 5.68336 9.14801C5.62534 9.28809 5.61015 9.44223 5.63972 9.59094C5.6693 9.73965 5.74229 9.87626 5.84949 9.98349L8.38511 12.5183ZM17.8927 31.6769V43.178H13.2923V30.9102H17.8927V31.6769ZM30.9273 29.3767C31.1307 29.3767 31.3257 29.4575 31.4695 29.6012C31.6133 29.745 31.694 29.9401 31.694 30.1434C31.694 30.3468 31.6133 30.5418 31.4695 30.6856C31.3257 30.8294 31.1307 30.9102 30.9273 30.9102H28.6271V32.4436H34.761C34.9644 32.4436 35.1594 32.5244 35.3032 32.6682C35.447 32.812 35.5277 33.007 35.5277 33.2104C35.5277 33.4137 35.447 33.6088 35.3032 33.7526C35.1594 33.8963 34.9644 33.9771 34.761 33.9771H30.1606V35.5106H33.9943C34.1976 35.5106 34.3926 35.5914 34.5364 35.7352C34.6802 35.879 34.761 36.074 34.761 36.2774C34.761 36.4807 34.6802 36.6757 34.5364 36.8195C34.3926 36.9633 34.1976 37.0441 33.9943 37.0441H30.1606V38.5776H33.9943C34.1976 38.5776 34.3926 38.6584 34.5364 38.8021C34.6802 38.9459 34.761 39.141 34.761 39.3443C34.761 39.5477 34.6802 39.7427 34.5364 39.8865C34.3926 40.0303 34.1976 40.1111 33.9943 40.1111H30.1606V41.6445H33.2275C33.4309 41.6445 33.6259 41.7253 33.7697 41.8691C33.9135 42.0129 33.9943 42.2079 33.9943 42.4113C33.9943 42.6146 33.9135 42.8097 33.7697 42.9534C33.6259 43.0972 33.4309 43.178 33.2275 43.178H24.134L19.4262 41.8332V32.4436H22.4931C22.6673 32.4437 22.8363 32.3845 22.9724 32.2757L26.596 29.3767H30.9273ZM27.0936 27.8432V24.0095H28.6271V27.8432H27.0936ZM27.8603 11.7416H26.54C26.7088 11.4493 26.9693 11.2208 27.2812 11.0916C27.5931 10.9624 27.9389 10.9398 28.2649 11.0271C28.591 11.1145 28.8791 11.307 29.0846 11.5748C29.2901 11.8427 29.4015 12.1708 29.4015 12.5084C29.4015 12.8459 29.2901 13.1741 29.0846 13.4419C28.8791 13.7097 28.591 13.9022 28.2649 13.9896C27.9389 14.077 27.5931 14.0543 27.2812 13.9251C26.9693 13.7959 26.7088 13.5675 26.54 13.2751H27.8603C28.0637 13.2751 28.2587 13.1943 28.4025 13.0505C28.5463 12.9067 28.6271 12.7117 28.6271 12.5084C28.6271 12.305 28.5463 12.11 28.4025 11.9662C28.2587 11.8224 28.0637 11.7416 27.8603 11.7416ZM27.8603 15.5753C28.4344 15.5775 28.9976 15.4184 29.4858 15.1163C29.974 14.8142 30.3676 14.3811 30.6218 13.8663C30.876 13.3516 30.9806 12.7758 30.9237 12.2045C30.8668 11.6332 30.6507 11.0894 30.3 10.6348C29.9493 10.1803 29.478 9.83331 28.9398 9.63339C28.4016 9.43347 27.8182 9.38861 27.2558 9.50394C26.6933 9.61926 26.1746 9.89013 25.7585 10.2857C25.3425 10.6813 25.0458 11.1857 24.9022 11.7416H22.1673C22.3618 10.296 23.0983 8.97834 24.2278 8.05539C25.3573 7.13244 26.7954 6.6732 28.2507 6.77066C29.7061 6.86812 31.07 7.515 32.0664 8.5803C33.0628 9.64561 33.6171 11.0497 33.6171 12.5084C33.6171 13.967 33.0628 15.3711 32.0664 16.4364C31.07 17.5017 29.7061 18.1486 28.2507 18.2461C26.7954 18.3435 25.3573 17.8843 24.2278 16.9614C23.0983 16.0384 22.3618 14.7207 22.1673 13.2751H24.9022C25.0717 13.9316 25.454 14.5133 25.9892 14.9295C26.5244 15.3457 27.1824 15.5728 27.8603 15.5753ZM27.8603 19.7924C29.2683 19.7926 30.6462 19.3847 31.8272 18.6181C33.0082 17.8515 33.9417 16.759 34.5147 15.4729C35.0878 14.1868 35.2758 12.7622 35.056 11.3715C34.8363 9.98073 34.2182 8.68349 33.2765 7.63674C32.3348 6.58999 31.1099 5.8386 29.7501 5.47349C28.3903 5.10838 26.9538 5.14521 25.6144 5.57951C24.2751 6.01382 23.0903 6.827 22.2035 7.92062C21.3167 9.01425 20.7659 10.3415 20.6177 11.7416H17.9341C18.1323 9.17211 19.3181 6.77924 21.2426 5.06513C23.167 3.35103 25.6806 2.44892 28.2559 2.54812C30.8311 2.64731 33.2678 3.74009 35.0548 5.59716C36.8417 7.45422 37.8398 9.93121 37.8398 12.5084C37.8398 15.0855 36.8417 17.5625 35.0548 19.4196C33.2678 21.2766 30.8311 22.3694 28.2559 22.4686C25.6806 22.5678 23.167 21.6657 21.2426 19.9516C19.3181 18.2375 18.1323 15.8446 17.9341 13.2751H20.6177C20.809 15.0633 21.6543 16.7177 22.9911 17.9206C24.3279 19.1235 26.062 19.7901 27.8603 19.7924ZM10.729 14.8086H8.30843L9.78748 13.2751H12.7011L10.729 14.8086ZM11.449 10.2081L13.0369 11.7416H9.77597L8.24249 10.2081H11.449Z" fill="#687796"/>
</svg>
