<svg width="45" height="45" viewBox="0 0 45 45" fill="none" xmlns="http://www.w3.org/2000/svg">
<path d="M42.7528 1.42034C38.1783 2.3351 33.5405 2.3351 28.9666 1.42034C28.7606 1.38026 28.5455 1.43299 28.383 1.56588C28.2199 1.69948 28.125 1.89846 28.125 2.1094V6.32815H4.92188C2.98336 6.32815 1.40625 7.90526 1.40625 9.84377V30.9375C1.40625 32.876 2.98336 34.4531 4.92188 34.4531H18.1076L17.0135 39.375H13.3594C12.9705 39.375 12.6562 39.6893 12.6562 40.0781C12.6562 42.0167 14.2334 43.5938 16.1719 43.5938H28.8281C30.7666 43.5938 32.3438 42.0167 32.3438 40.0781C32.3438 39.6893 32.0295 39.375 31.6406 39.375H27.9858L26.8917 34.4531H40.0781C42.0166 34.4531 43.5938 32.876 43.5938 30.9375V10.0934V2.1094C43.5938 1.89846 43.4988 1.69948 43.3364 1.56588C43.174 1.43299 42.9602 1.38096 42.7528 1.42034ZM29.5312 2.95666C33.7352 3.69846 37.9835 3.69846 42.1875 2.95666V10.0934C42.1875 11.4687 41.5153 12.761 40.3882 13.5492L35.8594 16.7196L31.3305 13.5492C30.2034 12.761 29.5312 11.4694 29.5312 10.0934V7.03127V2.95666ZM28.8281 42.1875H16.1719C15.255 42.1875 14.4731 41.5997 14.1827 40.7813H17.5781H27.4219H30.8173C30.5269 41.5997 29.745 42.1875 28.8281 42.1875ZM26.5451 39.375H18.4549L19.5483 34.4531H25.4517L26.5451 39.375ZM40.0781 33.0469H26.0156H18.9844H4.92188C3.75891 33.0469 2.8125 32.1005 2.8125 30.9375V28.8281H9.14062H35.8594H42.1875V30.9375C42.1875 32.1005 41.2411 33.0469 40.0781 33.0469ZM9.84375 14.7656V10.5469H19.6875V14.7656H9.84375ZM42.1875 13.8136V27.4219H36.5625V18.9844H35.1562V27.4219H9.84375V16.1719H29.5312V14.7656H21.0938V10.5469H26.7188V9.14065H9.14062C8.7518 9.14065 8.4375 9.45495 8.4375 9.84377V27.4219H2.8125V9.84377C2.8125 8.68081 3.75891 7.7344 4.92188 7.7344H28.125V10.0934C28.125 11.9271 29.0215 13.6505 30.5241 14.7017L35.4565 18.154C35.5774 18.2384 35.7188 18.2813 35.8594 18.2813C36 18.2813 36.1413 18.2384 36.2623 18.154L41.1947 14.7017C41.3803 14.5716 41.5568 14.431 41.7234 14.2819C41.7923 14.22 41.8528 14.1504 41.9182 14.0857C42.0089 13.9957 42.1031 13.9092 42.1875 13.8136Z" fill="#687796"/>
<path d="M35.1563 11.9532C35.3363 11.9532 35.5163 11.8843 35.6534 11.7471L39.8721 7.5284L38.8779 6.53418L35.1563 10.2558L33.544 8.64355L32.5498 9.63777L34.6592 11.7471C34.7963 11.8843 34.9763 11.9532 35.1563 11.9532Z" fill="#687796"/>
<path d="M12.6562 11.9531H11.25V13.3594H12.6562V11.9531Z" fill="#687796"/>
<path d="M15.4688 11.9531H14.0625V13.3594H15.4688V11.9531Z" fill="#687796"/>
<path d="M18.2812 11.9531H16.875V13.3594H18.2812V11.9531Z" fill="#687796"/>
<path d="M18.2812 18.2812H12.6562C12.2674 18.2812 11.9531 18.5955 11.9531 18.9844V24.6094C11.9531 24.9982 12.2674 25.3125 12.6562 25.3125H18.2812C18.6701 25.3125 18.9844 24.9982 18.9844 24.6094V18.9844C18.9844 18.5955 18.6701 18.2812 18.2812 18.2812ZM17.5781 23.9062H13.3594V19.6875H17.5781V23.9062Z" fill="#687796"/>
<path d="M32.3438 18.2812H22.5V19.6875H32.3438V18.2812Z" fill="#687796"/>
<path d="M32.3438 21.0938H22.5V22.5H32.3438V21.0938Z" fill="#687796"/>
<path d="M29.5312 23.9062H22.5V25.3125H29.5312V23.9062Z" fill="#687796"/>
<path d="M32.3438 23.9062H30.9375V25.3125H32.3438V23.9062Z" fill="#687796"/>
</svg>
