<svg width="45" height="45" viewBox="0 0 45 45" fill="none" xmlns="http://www.w3.org/2000/svg">
<path d="M10.5469 7.03125C10.9352 7.03125 11.25 6.71645 11.25 6.32812C11.25 5.9398 10.9352 5.625 10.5469 5.625C10.1585 5.625 9.84375 5.9398 9.84375 6.32812C9.84375 6.71645 10.1585 7.03125 10.5469 7.03125Z" fill="#687796"/>
<path d="M7.73438 7.03125C8.1227 7.03125 8.4375 6.71645 8.4375 6.32812C8.4375 5.9398 8.1227 5.625 7.73438 5.625C7.34605 5.625 7.03125 5.9398 7.03125 6.32812C7.03125 6.71645 7.34605 7.03125 7.73438 7.03125Z" fill="#687796"/>
<path d="M4.92188 7.03125C5.3102 7.03125 5.625 6.71645 5.625 6.32812C5.625 5.9398 5.3102 5.625 4.92188 5.625C4.53355 5.625 4.21875 5.9398 4.21875 6.32812C4.21875 6.71645 4.53355 7.03125 4.92188 7.03125Z" fill="#687796"/>
<path d="M42.8906 9.84375H2.10938C1.72125 9.84375 1.40625 9.52875 1.40625 9.14062C1.40625 8.7525 1.72125 8.4375 2.10938 8.4375H42.8906C43.2788 8.4375 43.5938 8.7525 43.5938 9.14062C43.5938 9.52875 43.2788 9.84375 42.8906 9.84375Z" fill="#687796"/>
<path d="M2.10938 30.9375C1.72125 30.9375 1.40625 30.6225 1.40625 30.2344V4.92188C1.40625 3.75891 2.35266 2.8125 3.51562 2.8125H41.4844C42.6473 2.8125 43.5938 3.75891 43.5938 4.92188V17.5781C43.5938 17.9663 43.2788 18.2812 42.8906 18.2812C42.5025 18.2812 42.1875 17.9663 42.1875 17.5781V4.92188C42.1875 4.53516 41.8725 4.21875 41.4844 4.21875H3.51562C3.1275 4.21875 2.8125 4.53516 2.8125 4.92188V30.2344C2.8125 30.6225 2.4975 30.9375 2.10938 30.9375Z" fill="#687796"/>
<path d="M30.9375 43.5938H14.7656C14.3775 43.5938 14.0625 43.2788 14.0625 42.8906C14.0625 42.5025 14.3775 42.1875 14.7656 42.1875H16.1719C17.3348 42.1875 18.2812 41.2411 18.2812 40.0781V38.6719C18.2812 38.2838 18.5963 37.9688 18.9844 37.9688C19.3725 37.9688 19.6875 38.2838 19.6875 38.6719V40.0781C19.6875 40.8698 19.4245 41.5997 18.983 42.1875H26.017C25.5755 41.5997 25.3125 40.8698 25.3125 40.0781V35.8594C25.3125 35.4712 25.6275 35.1562 26.0156 35.1562C26.4038 35.1562 26.7188 35.4712 26.7188 35.8594V40.0781C26.7188 41.2411 27.6652 42.1875 28.8281 42.1875H30.9375C31.3256 42.1875 31.6406 42.5025 31.6406 42.8906C31.6406 43.2788 31.3256 43.5938 30.9375 43.5938Z" fill="#687796"/>
<path d="M26.0156 36.5625H3.51562C2.35266 36.5625 1.40625 35.6161 1.40625 34.4531V30.2344C1.40625 29.8462 1.72125 29.5312 2.10938 29.5312H21.7969C22.185 29.5312 22.5 29.8462 22.5 30.2344C22.5 30.6225 22.185 30.9375 21.7969 30.9375H2.8125V34.4531C2.8125 34.8398 3.1275 35.1562 3.51562 35.1562H26.0156C26.4037 35.1562 26.7188 35.4713 26.7188 35.8594C26.7188 36.2475 26.4037 36.5625 26.0156 36.5625Z" fill="#687796"/>
<path d="M26.0156 19.6875H24.6094C24.2212 19.6875 23.9062 19.3725 23.9062 18.9844C23.9062 18.5962 24.2212 18.2812 24.6094 18.2812H26.0156C26.4037 18.2812 26.7188 18.5962 26.7188 18.9844C26.7188 19.3725 26.4037 19.6875 26.0156 19.6875Z" fill="#687796"/>
<path d="M38.6719 14.0625H24.6094C24.2212 14.0625 23.9062 13.7475 23.9062 13.3594C23.9062 12.9712 24.2212 12.6562 24.6094 12.6562H38.6719C39.06 12.6562 39.375 12.9712 39.375 13.3594C39.375 13.7475 39.06 14.0625 38.6719 14.0625Z" fill="#687796"/>
<path d="M38.6719 16.875H24.6094C24.2212 16.875 23.9062 16.56 23.9062 16.1719C23.9062 15.7837 24.2212 15.4688 24.6094 15.4688H38.6719C39.06 15.4688 39.375 15.7837 39.375 16.1719C39.375 16.56 39.06 16.875 38.6719 16.875Z" fill="#687796"/>
<path d="M10.5469 19.6875H6.32812C5.94 19.6875 5.625 19.3725 5.625 18.9844C5.625 18.5962 5.94 18.2812 6.32812 18.2812H10.5469C10.935 18.2812 11.25 18.5962 11.25 18.9844C11.25 19.3725 10.935 19.6875 10.5469 19.6875Z" fill="#687796"/>
<path d="M20.3906 14.0625H6.32812C5.94 14.0625 5.625 13.7475 5.625 13.3594C5.625 12.9712 5.94 12.6562 6.32812 12.6562H20.3906C20.7788 12.6562 21.0938 12.9712 21.0938 13.3594C21.0938 13.7475 20.7788 14.0625 20.3906 14.0625Z" fill="#687796"/>
<path d="M20.3906 16.875H6.32812C5.94 16.875 5.625 16.56 5.625 16.1719C5.625 15.7837 5.94 15.4688 6.32812 15.4688H20.3906C20.7788 15.4688 21.0938 15.7837 21.0938 16.1719C21.0938 16.56 20.7788 16.875 20.3906 16.875Z" fill="#687796"/>
<path d="M33.75 37.9688C28.3219 37.9688 23.9062 33.5517 23.9062 28.125C23.9062 22.6983 28.3219 18.2812 33.75 18.2812C35.6512 18.2812 37.4948 18.8241 39.0825 19.8492C39.4087 20.0602 39.5016 20.4947 39.2906 20.8209C39.0797 21.1444 38.6466 21.2428 38.3189 21.0291C36.9605 20.1516 35.3798 19.6875 33.75 19.6875C29.0967 19.6875 25.3125 23.4717 25.3125 28.125C25.3125 32.7783 29.0967 36.5625 33.75 36.5625C38.4033 36.5625 42.1875 32.7783 42.1875 28.125C42.1875 27.2222 42.0455 26.3348 41.767 25.4855C41.6461 25.1156 41.8472 24.7191 42.2156 24.5981C42.5841 24.4744 42.982 24.6783 43.103 25.0453C43.4278 26.0381 43.5938 27.0731 43.5938 28.125C43.5938 33.5517 39.1781 37.9688 33.75 37.9688Z" fill="#687796"/>
<path d="M33.0472 31.9204C33.0416 31.9204 33.0359 31.9204 33.0303 31.9204C32.8264 31.9148 32.6366 31.8234 32.5058 31.6673L28.9901 27.4486C28.7426 27.149 28.7834 26.7061 29.0801 26.4571C29.3797 26.2096 29.8212 26.2504 30.0716 26.5471L33.0711 30.1486L41.8109 20.4947C42.0753 20.2078 42.5197 20.1909 42.8037 20.4511C43.0892 20.714 43.1089 21.1584 42.8459 21.4453L33.5647 31.6926C33.4311 31.8389 33.2455 31.9204 33.0472 31.9204Z" fill="#687796"/>
</svg>
